<svg xmlns="http://www.w3.org/2000/svg"
    xmlns:xlink="http://www.w3.org/1999/xlink" version="1.1" id="Layer_1" viewBox="0 0 512 512" xml:space="preserve">
    <polygon style="fill:#6AB2CC;" points="512,243.712 512,172.862 256,3.254 0,172.862 0,243.712 67.579,388.631 256,411.174   446.517,384.338 "/>
    <rect x="91.241" y="66.703" style="fill:#E6E6E6;" width="329.513" height="360.887"/>
    <g>
        <polygon style="fill:#7DD2F0;" points="0,508.746 0,243.712 167.628,364.022 104.078,477.73  "/>
        <polygon style="fill:#7DD2F0;" points="512,508.746 512,243.712 344.37,364.022 407.922,477.73  "/>
    </g>
    <g>
        <path style="fill:#515262;" d="M344.37,138.736H167.628c-4.867,0-8.813-3.945-8.813-8.813c0-4.868,3.946-8.813,8.813-8.813H344.37   c4.867,0,8.813,3.945,8.813,8.813C353.183,134.791,349.237,138.736,344.37,138.736z"/>
        <path style="fill:#515262;" d="M344.37,179.528H167.628c-4.867,0-8.813-3.945-8.813-8.813s3.946-8.813,8.813-8.813H344.37   c4.867,0,8.813,3.945,8.813,8.813S349.237,179.528,344.37,179.528z"/>
        <path style="fill:#515262;" d="M344.37,220.32H167.628c-4.867,0-8.813-3.945-8.813-8.813s3.946-8.813,8.813-8.813H344.37   c4.867,0,8.813,3.945,8.813,8.813S349.237,220.32,344.37,220.32z"/>
    </g>
    <polygon style="fill:#99E4FF;" points="512,508.746 0,508.746 256,287.725 "/>
</svg>