<svg xmlns="http://www.w3.org/2000/svg"
    xmlns:xlink="http://www.w3.org/1999/xlink" height="800px" width="800px" version="1.1" id="Capa_1" viewBox="0 0 58 58" xml:space="preserve">
    <g>
        <polygon style="fill:#F2ECBF;" points="52,0 6,0 6,30.571 21,42 37,42 52,30.571  "/>
        <polygon style="fill:#86D7FB;" points="0,58 0.129,58 57.541,58 57.871,58 58,58 37,42 21,42  "/>
        <polygon style="fill:#2A55C5;" points="6.107,30.653 6,30.571 6,20.413 0,25.999 0,26 6.107,30.653  "/>
        <polygon style="fill:#2A55C5;" points="52,20.413 52,30.571 51.792,30.729 51.793,30.729 58,26 58,25.999  "/>
        <path style="fill:#BAB395;" d="M32,10h-6c-0.553,0-1-0.447-1-1s0.447-1,1-1h6c0.553,0,1,0.447,1,1S32.553,10,32,10z"/>
        <path style="fill:#BAB395;" d="M41,26h-6c-0.553,0-1-0.447-1-1s0.447-1,1-1h6c0.553,0,1,0.447,1,1S41.553,26,41,26z"/>
        <path style="fill:#BAB395;" d="M22,18h-5c-0.553,0-1-0.447-1-1s0.447-1,1-1h5c0.553,0,1,0.447,1,1S22.553,18,22,18z"/>
        <path style="fill:#BAB395;" d="M37,18h-7c-0.553,0-1-0.447-1-1s0.447-1,1-1h7c0.553,0,1,0.447,1,1S37.553,18,37,18z"/>
        <path style="fill:#BAB395;" d="M26,18c-0.26,0-0.521-0.11-0.71-0.29C25.109,17.52,25,17.26,25,17s0.109-0.521,0.29-0.71   c0.37-0.37,1.05-0.37,1.42,0C26.89,16.479,27,16.74,27,17s-0.11,0.52-0.29,0.71C26.52,17.89,26.26,18,26,18z"/>
        <path style="fill:#BAB395;" d="M31,26H21c-0.553,0-1-0.447-1-1s0.447-1,1-1h10c0.553,0,1,0.447,1,1S31.553,26,31,26z"/>
        <path style="fill:#BAB395;" d="M17,26c-0.26,0-0.521-0.11-0.71-0.29C16.109,25.52,16,25.26,16,25s0.109-0.521,0.29-0.71   c0.37-0.37,1.04-0.37,1.42,0C17.89,24.479,18,24.74,18,25s-0.11,0.52-0.29,0.71C17.52,25.899,17.26,26,17,26z"/>
        <path style="fill:#BAB395;" d="M41,18c-0.26,0-0.521-0.11-0.71-0.29C40.109,17.52,40,17.26,40,17c0-0.271,0.109-0.521,0.29-0.71   c0.37-0.37,1.05-0.37,1.42,0C41.89,16.479,42,16.729,42,17c0,0.27-0.11,0.52-0.29,0.71C41.52,17.89,41.26,18,41,18z"/>
        <path style="fill:#BAB395;" d="M22,34h-5c-0.553,0-1-0.447-1-1s0.447-1,1-1h5c0.553,0,1,0.447,1,1S22.553,34,22,34z"/>
        <path style="fill:#BAB395;" d="M37,34h-7c-0.553,0-1-0.447-1-1s0.447-1,1-1h7c0.553,0,1,0.447,1,1S37.553,34,37,34z"/>
        <path style="fill:#BAB395;" d="M26,34c-0.271,0-0.521-0.11-0.71-0.29C25.109,33.52,25,33.26,25,33c0-0.271,0.109-0.521,0.29-0.71   c0.37-0.37,1.04-0.37,1.42,0C26.89,32.479,27,32.74,27,33s-0.11,0.52-0.29,0.71C26.52,33.89,26.26,34,26,34z"/>
        <path style="fill:#BAB395;" d="M41,34c-0.26,0-0.521-0.11-0.71-0.29C40.109,33.52,40,33.26,40,33s0.109-0.521,0.29-0.71   c0.37-0.37,1.05-0.37,1.42,0C41.89,32.479,42,32.74,42,33s-0.11,0.52-0.29,0.71C41.52,33.89,41.27,34,41,34z"/>
        <polygon style="fill:#31B6F3;" points="0,58 0,26 21,42  "/>
        <polygon style="fill:#167CD8;" points="58,58 58,26 37,42  "/>
    </g>
</svg>